<svg xmlns="http://www.w3.org/2000/svg">	

	<symbol id="arrow-left" viewBox="0 0 30 16">
        <path d="M2,8H30M9,15,2,8,9,1" fill="none" stroke="currentColor" stroke-width="2"/>
	</symbol>
    
   <symbol id="arrow-right" viewBox="0 0 30 16">
        <path d="M0,8H28M21,1l7,7-7,7" fill="none" stroke="currentColor" stroke-width="2"/>
	</symbol>

   <symbol id="next" viewBox="0 0 25 14">
       <path d="M.5,7.38S16,5.75,23.88,7.38c1.19.25-5.7-6.88-5.7-6.88L24.5,7.38,17.55,13.5" fill="none" stroke-linecap="round" stroke="currentColor" stroke-linejoin="round"/>
	</symbol>

	<symbol id="prev" viewBox="0 0 25 14">
	   <path d="M7.45,13.5.5,7.38,6.82.5S-.07,7.63,1.12,7.38c7.88-1.63,23.38,0,23.38,0" fill="none" stroke="currentColor" stroke-linecap="round" stroke-linejoin="round"/>
	</symbol>

	<symbol id="website" viewBox="0 0 24 24">
	   <path d="M12,2A10,10,0,1,1,2,12,10,10,0,0,1,12,2Zm3,13V9H9m.17,5.83,5.66-5.66" fill="none" stroke-linecap="round" stroke-linejoin="round"/>
	</symbol>
	
	<symbol id="back" viewBox="0 0 25 15">
	   <path d="M1,11.3a.5.5,0,0,0,.4.58C2.79,12.17,11.93,14,18.12,14c2.41,0,4.37-.25,5.26-1A1.65,1.65,0,0,0,24,11.68c0-2.37-3.17-4.32-6.21-6.21a33.15,33.15,0,0,1-3.15-2.1A47.33,47.33,0,0,1,21.72,2a.51.51,0,0,0,.43-.53A.49.49,0,0,0,21.66,1H12.23a.49.49,0,0,0-.47.52l.35,6.15a.49.49,0,0,0,.15.33.53.53,0,0,0,.38.49h.1a.48.48,0,0,0,.48-.41L14,4.14a33,33,0,0,0,3.28,2.21C20,8,23,9.88,23,11.69a.61.61,0,0,1-.26.5c-2.39,2-16.07-.3-21.15-1.3h0a.48.48,0,0,0-.56.4ZM14.09,2.55a.48.48,0,0,0-.23-.13h0a.5.5,0,0,0-.59.39l-.33,1.71L12.79,2h3A11.24,11.24,0,0,0,14.09,2.55Z"/>
	</symbol>

    <symbol id="share" viewBox="0 0 32 32">
       <path d="M22.9,20.61a4.1,4.1,0,0,0-3.29,1.68l-7.78-4.54a4.14,4.14,0,0,0,0-3.54l7.78-4.5a4.05,4.05,0,0,0,5.75.84,4.26,4.26,0,0,0,.81-5.88,4,4,0,0,0-5.74-.83A4.24,4.24,0,0,0,19.19,9l-7.78,4.52a4,4,0,0,0-5.74-.88,4.25,4.25,0,0,0-.87,5.86,4.08,4.08,0,0,0,6.61,0L19.19,23a4.28,4.28,0,0,0-.4,1.77,4.11,4.11,0,1,0,4.11-4.2Zm0-16.77A3.32,3.32,0,0,1,26.18,7.2a3.29,3.29,0,1,1-6.57,0A3.32,3.32,0,0,1,22.9,3.84ZM8.12,19.36A3.36,3.36,0,1,1,11.41,16,3.33,3.33,0,0,1,8.12,19.36Zm14.78,8.8a3.36,3.36,0,1,1,3.28-3.35A3.32,3.32,0,0,1,22.9,28.16Z"/>
    </symbol>
</svg>
